#define alert_width 14
#define alert_height 14
static char alert_bits[] = {
  0xFF, 0x3F, 0x41, 0x3C, 0xF1, 0x38, 0xF1, 0x30, 0xF1, 0x30, 0xE1, 0x30, 
  0xF1, 0x30, 0xF1, 0x30, 0xF1, 0x30, 0x01, 0x30, 0xF1, 0x30, 0x21, 0x30, 
  0xFF, 0x3F, 0xFF, 0x3F, };
