#define arr_up_width 14
#define arr_up_height 14
static char arr_up_bits[] = {
  0x00, 0x00, 0x80, 0x00, 0xC0, 0x01, 0xE0, 0x03, 0xF0, 0x07, 0xF8, 0x0F, 
  0xC0, 0x01, 0xC0, 0x01, 0xC0, 0x03, 0xC0, 0x01, 0xC0, 0x03, 0xC0, 0x01, 
  0xC0, 0x01, 0x00, 0x00, };
