#define arr_down_width 14
#define arr_down_height 14
static char arr_down_bits[] = {
  0x00, 0x00, 0xC0, 0x01, 0xC0, 0x03, 0xC0, 0x01, 0xC0, 0x01, 0xC0, 0x03, 
  0xC0, 0x01, 0xC0, 0x01, 0xF0, 0x07, 0xF0, 0x07, 0xE0, 0x03, 0xC0, 0x01, 
  0x80, 0x00, 0x00, 0x00, };
