#define ball_width 14
#define ball_height 14
static char ball_bits[] = {
  0x00, 0x00, 0x80, 0x00, 0xF0, 0x03, 0xF8, 0x07, 0x1C, 0x0F, 0x9C, 0x0F, 
  0xFE, 0x1F, 0xFC, 0x0F, 0xFC, 0x0F, 0xFC, 0x0F, 0xF8, 0x07, 0xF0, 0x03, 
  0x40, 0x01, 0x00, 0x00, };
