#define battery_width 14
#define battery_height 14
static char battery_bits[] = {
  0x00, 0x00, 0x00, 0x00, 0x00, 0x00, 0x68, 0x03, 0xFE, 0x0E, 0xFC, 0x18, 
  0xFC, 0x1C, 0xFC, 0x18, 0xFC, 0x04, 0xEC, 0x07, 0x00, 0x00, 0x00, 0x00, 
  0x00, 0x00, 0x00, 0x00, };
