#define envelope_width 14
#define envelope_height 14
static char envelope_bits[] = {
  0x00, 0x00, 0x00, 0x00, 0xBC, 0x0F, 0xFE, 0x1F, 0x0E, 0x1C, 0x16, 0x1A, 
  0xE2, 0x11, 0xE6, 0x19, 0xC6, 0x18, 0x06, 0x10, 0xFE, 0x1F, 0x68, 0x0E, 
  0x00, 0x00, 0x00, 0x00, };
