#define full_width 14
#define full_height 14
static char full_bits[] = {
  0x00, 0x00, 0x00, 0x00, 0xFC, 0x07, 0xFC, 0x0F, 0xFC, 0x0F, 0x04, 0x0C, 
  0x0C, 0x0C, 0x0C, 0x0C, 0x0C, 0x0C, 0x0C, 0x0C, 0x04, 0x08, 0xAC, 0x0E, 
  0xFC, 0x0F, 0x00, 0x00, };
