#define has_win_nv_width 8
#define has_win_nv_height 14
static char has_win_nv_bits[] = {
  0x7F, 0x73, 0x41, 0x63, 0x61, 0x7F, 0x19, 0x00, 0x00, 0x00, 0x00, 0x00, 
  0x00, 0x00, };
