#define has_win_width 8
#define has_win_height 14
static char has_win_bits[] = {
  0x7F, 0x7F, 0x3F, 0x7F, 0x7F, 0x00, 0x00, 0x00, 0x00, 0x00, 0x00, 0x00, 
  0x00, 0x00, };
