#define mtall_width 14
#define mtall_height 14
static char mtall_bits[] = {
  0x00, 0x00, 0x00, 0x00, 0xF8, 0x07, 0xFC, 0x0F, 0xFC, 0x0F, 0xFC, 0x0F, 
  0xFC, 0x0F, 0xFC, 0x0F, 0x20, 0x00, 0xC8, 0x0C, 0xDC, 0x0E, 0xDC, 0x0E, 
  0xD8, 0x0C, 0x00, 0x00, };
