#define musicS_width 14
#define musicS_height 14
static char musicS_bits[] = {
  0x00, 0x00, 0xE0, 0x00, 0xE0, 0x07, 0xB0, 0x0F, 0x20, 0x0F, 0x30, 0x08, 
  0x20, 0x08, 0x38, 0x0C, 0x1E, 0x0C, 0x9E, 0x09, 0x9E, 0x0F, 0x8C, 0x07, 
  0x80, 0x07, 0x00, 0x00, };
