#define music_width 14
#define music_height 14
static char music_bits[] = {
  0x00, 0x00, 0x70, 0x00, 0xF0, 0x07, 0x90, 0x07, 0x10, 0x0C, 0x10, 0x04, 
  0x10, 0x0C, 0x10, 0x00, 0x1E, 0x04, 0x1E, 0x0C, 0x8E, 0x07, 0x84, 0x07, 
  0x00, 0x03, 0x00, 0x00, };
