#define pause_width 14
#define pause_height 14
static char pause_bits[] = {
  0x00, 0x00, 0x00, 0x00, 0x00, 0x00, 0x38, 0x0F, 0x38, 0x07, 0x3C, 0x07, 
  0x38, 0x07, 0x38, 0x07, 0x38, 0x07, 0x38, 0x07, 0x3C, 0x07, 0x00, 0x04, 
  0x00, 0x00, 0x00, 0x00, };
