#define play_width 14
#define play_height 14
static char play_bits[] = {
  0x00, 0x00, 0x00, 0x00, 0x08, 0x00, 0x18, 0x00, 0x78, 0x00, 0xFC, 0x03, 
  0xFC, 0x07, 0xF8, 0x07, 0xF8, 0x01, 0x78, 0x00, 0x1C, 0x00, 0x00, 0x00, 
  0x00, 0x00, 0x00, 0x00, };
