/* XPM */
static char *silverpillar[] = {
/* columns rows colors chars-per-pixel */
"3 14 42 1 ",
"  c #ADEFADF1AFAA",
". c #C736C7D1C8B1",
"X c #9044916C93CA",
"o c #BA7BBB5ABC6E",
"O c #AD07ADF9AF83",
"+ c #8559861F8957",
"@ c None",
"# c #9DDA9ED7A0D9",
"$ c #76EE77E57A8E",
"% c #B4FCB591B70E",
"& c #9D239DEB9FCD",
"* c #73DD746A7672",
"= c #B378B440B586",
"- c #9B749C2B9DFC",
"; c #70007083728D",
": c #B21BB225B3B0",
"> c #994E99E19BC4",
", c #6B5C6C526E5A",
"< c #AFEEB013B1E1",
"1 c #97AB98789A6C",
"2 c #67F369036B07",
"3 c #ACDBADB5AF4F",
"4 c #957A9659983F",
"5 c #64D26579677A",
"6 c #AAE7AB1FAD20",
"7 c #93B294579674",
"8 c #60F6617563D8",
"9 c #AAC1AABEACAF",
"0 c #92B792CD94E4",
"q c #5E825E826174",
"w c #AA95AAD5ACCF",
"e c #920492449434",
"r c #5C145C545E94",
"t c #A5E5A677A87B",
"y c #8EFB8FBF91E2",
"u c #58EC59795BE7",
"i c #C376C3CAC4F9",
"p c #ABF5ACDAAE2E",
"a c #7250739B75E9",
"s c #ED3AED29ED24",
"d c #D3ACD433D51F",
"f c #7D377E698111",
/* pixels */
" .X",
"oO+",
"@#$",
"%&*",
"=-;",
":>,",
"<12",
"345",
"678",
"90q",
"wer",
"tyu",
"ipa",
"sdf"
};
