#define tall_width 14
#define tall_height 14
static char tall_bits[] = {
  0x00, 0x00, 0x00, 0x00, 0xFC, 0x0A, 0xFE, 0x1E, 0xFE, 0x0E, 0xFE, 0x00, 
  0xFE, 0x1E, 0xFE, 0x1E, 0xFE, 0x00, 0xFE, 0x1E, 0xFE, 0x1E, 0xEC, 0x0C, 
  0x00, 0x00, 0x00, 0x00, };
