#define volume_width 14
#define volume_height 14
static char volume_bits[] = {
  0x00, 0x00, 0x00, 0x00, 0x00, 0x1C, 0x80, 0x1C, 0x98, 0x1D, 0xBC, 0x0E, 
  0xBE, 0x1C, 0xBC, 0x1D, 0xBC, 0x0D, 0x98, 0x1C, 0x80, 0x1C, 0x00, 0x1C, 
  0x00, 0x00, 0x00, 0x00, };
