#define volume2_width 14
#define volume2_height 14
static char volume2_bits[] = {
  0x00, 0x00, 0x00, 0x00, 0x00, 0x0E, 0xA0, 0x05, 0xB0, 0x05, 0xB4, 0x0D, 
  0xBC, 0x05, 0xB4, 0x07, 0xB0, 0x07, 0xA0, 0x05, 0x00, 0x0E, 0x00, 0x00, 
  0x00, 0x00, 0x00, 0x00, };
