#define xin_scr_width 8
#define xin_scr_height 14
static char xin_scr_bits[] = {
  0x08, 0x0C, 0x1C, 0x3E, 0x7F, 0x00, 0x00, 0x00, 0x00, 0x00, 0x00, 0x00, 
  0x00, 0x00, };
