/* XPM */
static char * calendar_xpm[] = {
"24 24 369 2",
"  	c None",
". 	c #52626D",
"+ 	c #51697A",
"@ 	c #51758D",
"# 	c #5582A1",
"$ 	c #578EB3",
"% 	c #5997C1",
"& 	c #5A9CCA",
"* 	c #5A9FCF",
"= 	c #5BA1D1",
"- 	c #5B9ECC",
"; 	c #599AC7",
"> 	c #5791B8",
", 	c #5485A8",
"' 	c #507590",
") 	c #4E6474",
"! 	c #4C5962",
"~ 	c #415867",
"{ 	c #4F93C2",
"] 	c #4FAAE9",
"^ 	c #48AEF6",
"/ 	c #3EAAF6",
"( 	c #36A5F4",
"_ 	c #2FA0F2",
": 	c #289CF1",
"< 	c #2499EF",
"[ 	c #2196EE",
"} 	c #1E94ED",
"| 	c #1E93ED",
"1 	c #1F92ED",
"2 	c #2393EC",
"3 	c #2894ED",
"4 	c #2F97EF",
"5 	c #3A9CF0",
"6 	c #4094DD",
"7 	c #4380B6",
"8 	c #43617D",
"9 	c #2E618C",
"0 	c #178DEE",
"a 	c #0A85EC",
"b 	c #027DE4",
"c 	c #007AE3",
"d 	c #0077E1",
"e 	c #0073DC",
"f 	c #0070D9",
"g 	c #006DD6",
"h 	c #006AD4",
"i 	c #0069D4",
"j 	c #0068D4",
"k 	c #0068D5",
"l 	c #0068D6",
"m 	c #006ADA",
"n 	c #006BDD",
"o 	c #006CDF",
"p 	c #0071E2",
"q 	c #067DEF",
"r 	c #1D6CB8",
"s 	c #17548F",
"t 	c #005FC8",
"u 	c #005BBC",
"v 	c #0865BE",
"w 	c #176DC0",
"x 	c #2372BE",
"y 	c #2F73B6",
"z 	c #3975B0",
"A 	c #4277AD",
"B 	c #4577A9",
"C 	c #4778A7",
"D 	c #4677A7",
"E 	c #4175A9",
"F 	c #3671AB",
"G 	c #286DB0",
"H 	c #1767B6",
"I 	c #015BB3",
"J 	c #0055B5",
"K 	c #0064D8",
"L 	c #045FB9",
"M 	c #4A657F",
"N 	c #7698BA",
"O 	c #9AADBF",
"P 	c #B7BEC4",
"Q 	c #D5D1CC",
"R 	c #E6DDD4",
"S 	c #F1EAE3",
"T 	c #F7F1EC",
"U 	c #FCF5F0",
"V 	c #FFFAF5",
"W 	c #FDF7F1",
"X 	c #F8F2EB",
"Y 	c #F0E9E3",
"Z 	c #E5DED7",
"` 	c #DBD3CA",
" .	c #CBC4BB",
"..	c #B2B4B5",
"+.	c #8FA1B2",
"@.	c #5D87B0",
"#.	c #2C5A86",
"$.	c #B3B0AE",
"%.	c #FFFFFF",
"&.	c #FDFCFB",
"*.	c #E3E5E6",
"=.	c #E6E8EA",
"-.	c #EDF0F2",
";.	c #EEF1F2",
">.	c #F1F4F6",
",.	c #D1D2D4",
"'.	c #CDD6D7",
").	c #CFDEE0",
"!.	c #D1DADB",
"~.	c #CCD5D7",
"{.	c #C8D6D8",
"].	c #DAE5E7",
"^.	c #E6E8E7",
"/.	c #EBE7E4",
"(.	c #FFF8F0",
"_.	c #B5B1AE",
":.	c #C5C7C9",
"<.	c #FCFFFF",
"[.	c #D6D8DA",
"}.	c #E6E9EB",
"|.	c #F6F9FB",
"1.	c #C0C9CA",
"2.	c #CABBBB",
"3.	c #D99997",
"4.	c #D89694",
"5.	c #CD908E",
"6.	c #C97B79",
"7.	c #DE7D7B",
"8.	c #CEC5C4",
"9.	c #CBCECE",
"0.	c #E9E8E8",
"a.	c #D1D3D5",
"b.	c #303840",
"c.	c #C1C2C3",
"d.	c #EFF1F2",
"e.	c #EBEEF0",
"f.	c #E1E3E5",
"g.	c #BDBEBF",
"h.	c #C2C3C4",
"i.	c #D9DBDB",
"j.	c #D3D3D4",
"k.	c #D2D8D9",
"l.	c #B09D9C",
"m.	c #E54B47",
"n.	c #DD5D5A",
"o.	c #C98381",
"p.	c #CA817E",
"q.	c #D15A56",
"r.	c #E63E39",
"s.	c #CEB6B5",
"t.	c #C7CDCD",
"u.	c #D2D1D0",
"v.	c #D0D3D5",
"w.	c #454D54",
"x.	c #3C4043",
"y.	c #BABBBC",
"z.	c #CCCCCC",
"A.	c #D0D1D1",
"B.	c #CBCBCB",
"C.	c #AEAEAE",
"D.	c #B1B0B0",
"E.	c #CECECE",
"F.	c #CCCACA",
"G.	c #CBD7D7",
"H.	c #D36D6A",
"I.	c #E85450",
"J.	c #C7EAEB",
"K.	c #C9E1E2",
"L.	c #C4EAEB",
"M.	c #BDA1A0",
"N.	c #DA7875",
"O.	c #CFCECE",
"P.	c #CCCECE",
"Q.	c #CDCDCC",
"R.	c #D8DADD",
"S.	c #565C64",
"T.	c #55595C",
"U.	c #C7C6C6",
"V.	c #D2D2D2",
"W.	c #B7B7B7",
"X.	c #B2B2B2",
"Y.	c #CACACA",
"Z.	c #C4C3C3",
"`.	c #C4CDCD",
" +	c #BF7B79",
".+	c #E53F3A",
"++	c #D8A9A8",
"@+	c #D4B1B0",
"#+	c #D8AAA8",
"$+	c #D95A56",
"%+	c #CCA09E",
"&+	c #C8D4D4",
"*+	c #C1C0BF",
"=+	c #DAE0E4",
"-+	c #616A72",
";+	c #65686B",
">+	c #C0C1C2",
",+	c #C2C1C1",
"'+	c #C8C8C8",
")+	c #C4C4C4",
"!+	c #AAAAAA",
"~+	c #A9A9A9",
"{+	c #BEBEBE",
"]+	c #BABABA",
"^+	c #BCBDBD",
"/+	c #9AA1A1",
"(+	c #D28482",
"_+	c #E56864",
":+	c #DF6764",
"<+	c #E56360",
"[+	c #C88C8A",
"}+	c #D2DBDC",
"|+	c #E2E5E7",
"1+	c #DADBDC",
"2+	c #BDBEBE",
"3+	c #D4DFE9",
"4+	c #67717B",
"5+	c #727578",
"6+	c #C8C9CA",
"7+	c #C1C1C1",
"8+	c #B4B4B4",
"9+	c #B6B6B6",
"0+	c #D7D7D7",
"a+	c #D1D1D1",
"b+	c #D4D4D4",
"c+	c #ACABAB",
"d+	c #C5D3D4",
"e+	c #CBD0D0",
"f+	c #CEC4C4",
"g+	c #CACECE",
"h+	c #BECBCC",
"i+	c #F2F4F7",
"j+	c #DFE1E3",
"k+	c #C9DBEB",
"l+	c #697682",
"m+	c #7C7F81",
"n+	c #DEDFE0",
"o+	c #C0C0BF",
"p+	c #D0D0D0",
"q+	c #CFCFCF",
"r+	c #BCBCBC",
"s+	c #BFBFBF",
"t+	c #B5B5B5",
"u+	c #C3C6C6",
"v+	c #C3C9C9",
"w+	c #C1C4C4",
"x+	c #C2C2C2",
"y+	c #E8EAEC",
"z+	c #F5F7F9",
"A+	c #F6F9FA",
"B+	c #E7EDF2",
"C+	c #C2DDF2",
"D+	c #6B7B89",
"E+	c #838588",
"F+	c #F6F7F8",
"G+	c #E5E5E4",
"H+	c #ECECEC",
"I+	c #EAEAEA",
"J+	c #E6E6E6",
"K+	c #EEEEEE",
"L+	c #F3F2F2",
"M+	c #F6F6F6",
"N+	c #FAFAFA",
"O+	c #FBFBFB",
"P+	c #FDFDFD",
"Q+	c #FBFBFA",
"R+	c #F8F8F7",
"S+	c #F3F2F1",
"T+	c #F0F0F1",
"U+	c #E1E9EF",
"V+	c #CDE0EE",
"W+	c #C3E2F9",
"X+	c #738491",
"Y+	c #8A8D8E",
"Z+	c #FFFFFE",
"`+	c #FFFEFE",
" @	c #F0F5FB",
".@	c #D0E0EE",
"+@	c #B1CBE1",
"@@	c #A6C7E5",
"#@	c #6F849A",
"$@	c #8E9194",
"%@	c #FDFFFF",
"&@	c #EFF4F8",
"*@	c #ECF2F7",
"=@	c #E7EDF4",
"-@	c #E3EAF2",
";@	c #E3EBF3",
">@	c #E2EBF4",
",@	c #E3ECF5",
"'@	c #E1EBF4",
")@	c #E0EBF5",
"!@	c #DDE9F4",
"~@	c #D8E6F3",
"{@	c #D3E3F2",
"]@	c #CBDFEF",
"^@	c #C3DAED",
"/@	c #B9D3E9",
"(@	c #A9C8E4",
"_@	c #9FC2E1",
":@	c #9EC1E2",
"<@	c #A5CDF1",
"[@	c #89A6C0",
"}@	c #484D52",
"|@	c #848A91",
"1@	c #E2F3FF",
"2@	c #CFE3F5",
"3@	c #CFE4F6",
"4@	c #D8ECFE",
"5@	c #E1F4FF",
"6@	c #E2F4FF",
"7@	c #E0F2FF",
"8@	c #DDF0FF",
"9@	c #DBEFFE",
"0@	c #D7ECFD",
"a@	c #D1E9FC",
"b@	c #CBE5FB",
"c@	c #C4E2F9",
"d@	c #BDDFF7",
"e@	c #B7DDF7",
"f@	c #B3DAF6",
"g@	c #B0D8F5",
"h@	c #B0D9F6",
"i@	c #ADD6F1",
"j@	c #9CBFD6",
"k@	c #748692",
"l@	c #4D5153",
"m@	c #C1CFDB",
"n@	c #EAFBFF",
"o@	c #D3E2ED",
"p@	c #BBC8D2",
"q@	c #B8C5D0",
"r@	c #C4D3E0",
"s@	c #D9EBFA",
"t@	c #E1F6FF",
"u@	c #D9F1FF",
"v@	c #D3EDFF",
"w@	c #CAE9FF",
"x@	c #C3E6FE",
"y@	c #BEE3FD",
"z@	c #B9E0FC",
"A@	c #B6DEFB",
"B@	c #B4DEFB",
"C@	c #B5DFFC",
"D@	c #BAE5FF",
"E@	c #8BA6B9",
"F@	c #373736",
"G@	c #525557",
"H@	c #98A2AB",
"I@	c #9CA7AF",
"J@	c #ACB7C2",
"K@	c #B1BECA",
"L@	c #AEBCC9",
"M@	c #ADBCCA",
"N@	c #AABBCA",
"O@	c #A3B7C7",
"P@	c #9FB5C6",
"Q@	c #9AB2C4",
"R@	c #96B0C3",
"S@	c #94AEC2",
"T@	c #93AEC2",
"U@	c #93AFC3",
"V@	c #95B1C5",
"W@	c #97B3C8",
"X@	c #98B5C9",
"Y@	c #99B6CA",
"Z@	c #6D7A84",
"`@	c #787F85",
" #	c #6C7176",
"                                                ",
"                                                ",
"                                                ",
"        . + @ # $ % & * = - ; > , ' ) !         ",
"    ~ { ] ^ / ( _ : < [ } | 1 2 3 4 5 6 7 8     ",
"    9 0 a b c d e f g h i j k l m n o p q r     ",
"    s t u v w x y z A B C D E F G H I J K L     ",
"    M N O P Q R S T U V W X Y Z `  ...+.@.#.    ",
"    $.%.%.&.*.=.-.;.>.,.'.).!.~.{.].^./.(._.    ",
"    :.%.<.<.[.}.<.|.<.1.2.3.4.5.6.7.8.9.0.a.b.  ",
"    c.d.e.f.g.h.i.j.k.l.m.n.o.p.q.r.s.t.u.v.w.  ",
"  x.y.z.A.B.C.D.E.F.G.H.I.J.K.L.M.N.O.P.Q.R.S.  ",
"  T.y.U.V.V.W.X.Y.Z.`. +.+++@+#+$+%+&+Y.*+=+-+  ",
"  ;+>+,+'+)+!+~+{+]+^+/+(+_+:+<+[+}+|+1+2+3+4+  ",
"  5+6+7+B.z.8+9+0+a+b+c+d+e+f+g+h+i+%.%.j+k+l+  ",
"  m+n+o+p+q+r+s+V.E.q+t+{+u+v+w+x+y+z+A+B+C+D+  ",
"  E+F+G+H+I+J+H+K+L+M+N+O+P+P+Q+R+S+T+U+V+W+X+  ",
"  Y+%.%.%.%.%.%.%.%.%.%.Z+`+`+Z+%.%. @.@+@@@#@  ",
"  $@%@&@*@=@-@;@>@,@'@)@!@~@{@]@^@/@(@_@:@<@[@}@",
"  |@1@2@3@4@5@6@7@8@9@0@a@b@c@d@e@f@g@h@i@j@k@  ",
"  l@m@n@o@p@q@r@s@t@u@v@w@x@y@z@A@B@B@C@D@E@F@  ",
"    G@H@I@J@K@L@M@N@O@P@Q@R@S@T@U@V@W@X@Y@Z@    ",
"      `@ #                                      ",
"                                                "};
