/* XPM */
static char * clock_xpm[] = {
"24 24 322 2",
"  	c None",
". 	c #C11515",
"+ 	c #CC3536",
"@ 	c #DA6061",
"# 	c #DF6D6D",
"$ 	c #DA5F5F",
"% 	c #CB3434",
"& 	c #C11616",
"* 	c #C62D2D",
"= 	c #EF9392",
"- 	c #FFBAB9",
"; 	c #FFCECE",
"> 	c #F3AFAF",
", 	c #EFA9A9",
"' 	c #FFCDCD",
") 	c #FFBBBA",
"! 	c #EE8F8F",
"~ 	c #C42929",
"{ 	c #AD0000",
"] 	c #E27575",
"^ 	c #DD8385",
"/ 	c #CA9299",
"( 	c #BD9CA4",
"_ 	c #C8BFC9",
": 	c #B6929A",
"< 	c #CDC4CF",
"[ 	c #C5A3AC",
"} 	c #D098A0",
"| 	c #DE8182",
"1 	c #FFBBBB",
"2 	c #E07070",
"3 	c #AF0000",
"4 	c #AE0505",
"5 	c #F39393",
"6 	c #F98C8C",
"7 	c #BF7F86",
"8 	c #D3D6E0",
"9 	c #E8EFF7",
"0 	c #CBD0D2",
"a 	c #CCD5D6",
"b 	c #A64647",
"c 	c #FCFFFF",
"d 	c #B4B9BB",
"e 	c #8C9395",
"f 	c #DCDEE9",
"g 	c #C07C83",
"h 	c #FA8B8A",
"i 	c #F08D8D",
"j 	c #AC0202",
"k 	c #9E0000",
"l 	c #EE8383",
"m 	c #F16868",
"n 	c #BE98A0",
"o 	c #E4EFF5",
"p 	c #EEECF1",
"q 	c #F2F2F6",
"r 	c #D3D3D4",
"s 	c #C4C7C7",
"t 	c #CDA4A6",
"u 	c #FFFFFF",
"v 	c #7F7F7F",
"w 	c #A1A1A3",
"x 	c #F4F2F7",
"y 	c #E8F1FA",
"z 	c #D4ABB4",
"A 	c #F77271",
"B 	c #EA7C7C",
"C 	c #9C0000",
"D 	c #CE4E4E",
"E 	c #FF6B6A",
"F 	c #BF919B",
"G 	c #E5EDF2",
"H 	c #DEDEDC",
"I 	c #ECECEE",
"J 	c #FCFCFE",
"K 	c #E2E2E2",
"L 	c #BBBABA",
"M 	c #DADADA",
"N 	c #6E6E6E",
"O 	c #DCDCDE",
"P 	c #FEFEFF",
"Q 	c #E6E6EB",
"R 	c #5A6164",
"S 	c #AD7C85",
"T 	c #FF6C6B",
"U 	c #CC4D4D",
"V 	c #A20D0D",
"W 	c #FF7979",
"X 	c #C75C60",
"Y 	c #E1EEF7",
"Z 	c #EFEEF3",
"` 	c #E5E5E6",
" .	c #DDDDDD",
"..	c #F9F9F9",
"+.	c #F2F2F2",
"@.	c #B6B6B6",
"#.	c #FAFAFA",
"$.	c #AAAAAA",
"%.	c #858585",
"&.	c #DFDFE1",
"*.	c #0B0B0B",
"=.	c #000000",
"-.	c #C0CED6",
";.	c #D06267",
">.	c #FF6E6D",
",.	c #A41010",
"'.	c #CC4A4A",
").	c #F23231",
"!.	c #C9C4CF",
"~.	c #EDEBF1",
"{.	c #FBFBFE",
"].	c #FAFAFC",
"^.	c #E0E0E0",
"/.	c #DFDFDF",
"(.	c #F8F8F8",
"_.	c #B9B9B9",
":.	c #E3E3E3",
"<.	c #7C7C7C",
"[.	c #BCBCBD",
"}.	c #D0D0D0",
"|.	c #050504",
"1.	c #D9D9DD",
"2.	c #F3F8FF",
"3.	c #C2B2BC",
"4.	c #FE4444",
"5.	c #C33E3E",
"6.	c #E94948",
"7.	c #D74347",
"8.	c #DBE6EF",
"9.	c #F0EFF3",
"0.	c #9B9B9C",
"a.	c #DCDCDC",
"b.	c #EFEFEF",
"c.	c #ECECEC",
"d.	c #C3C3C3",
"e.	c #B1B1B1",
"f.	c #818181",
"g.	c #8B8B8B",
"h.	c #232323",
"i.	c #F4F4F5",
"j.	c #FDFDFF",
"k.	c #EFEFF3",
"l.	c #DEEDF7",
"m.	c #D32B2D",
"n.	c #EC5A5A",
"o.	c #981D1C",
"p.	c #F72D2C",
"q.	c #CC666D",
"r.	c #E4F4FC",
"s.	c #F0F2F6",
"t.	c #272727",
"u.	c #838383",
"v.	c #C9C9C9",
"w.	c #999999",
"x.	c #393939",
"y.	c #464646",
"z.	c #F8F8F9",
"A.	c #F2F3F7",
"B.	c #E8F2FA",
"C.	c #C55B62",
"D.	c #FC3C3B",
"E.	c #8E0B0B",
"F.	c #9C1C1C",
"G.	c #FF1B1B",
"H.	c #C77A81",
"I.	c #D2BEC4",
"J.	c #DABCBE",
"K.	c #FEFFFF",
"L.	c #9F9F9F",
"M.	c #282828",
"N.	c #262626",
"O.	c #747474",
"P.	c #F8F7F8",
"Q.	c #D9BABD",
"R.	c #D1BABF",
"S.	c #C97B83",
"T.	c #F91716",
"U.	c #9F2020",
"V.	c #A31919",
"W.	c #FF1B1A",
"X.	c #C77F87",
"Y.	c #C29FA2",
"Z.	c #C79B9E",
"`.	c #FAFDFE",
" +	c #E4E4E4",
".+	c #939393",
"++	c #171717",
"@+	c #949494",
"#+	c #FBFBFB",
"$+	c #F7F6F7",
"%+	c #C99C9E",
"&+	c #C39EA2",
"*+	c #CA7F88",
"=+	c #F91413",
"-+	c #A61F1F",
";+	c #A71917",
">+	c #FA2B2B",
",+	c #CB777E",
"'+	c #EAFAFF",
")+	c #F3F5FA",
"!+	c #F9F9FA",
"~+	c #FEFEFE",
"{+	c #F9F9FB",
"]+	c #F4F7FB",
"^+	c #EAF5FC",
"/+	c #C56B72",
"(+	c #FD3837",
"_+	c #A30E0E",
":+	c #A60606",
"<+	c #F14040",
"[+	c #D56166",
"}+	c #DDE7F0",
"|+	c #EEEDF2",
"1+	c #F6F6F9",
"2+	c #FDFDFE",
"3+	c #F6F6F8",
"4+	c #E1EDF7",
"5+	c #CE4F52",
"6+	c #F54C4C",
"7+	c #DE3939",
"8+	c #E95454",
"9+	c #CFD1DD",
"0+	c #EDECF0",
"a+	c #F3F3F6",
"b+	c #FAFAFB",
"c+	c #EEF1F7",
"d+	c #C7C1CC",
"e+	c #F45E5E",
"f+	c #D83535",
"g+	c #C00B0B",
"h+	c #FF7877",
"i+	c #C1878E",
"j+	c #E6EEF7",
"k+	c #EEEEF3",
"l+	c #F5F5F7",
"m+	c #FFFFFE",
"n+	c #FBFBFC",
"o+	c #F4F4F7",
"p+	c #EEEDF1",
"q+	c #E3ECF5",
"r+	c #C78C92",
"s+	c #FF6E6E",
"t+	c #C00C0C",
"u+	c #E73E3E",
"v+	c #F59393",
"w+	c #C2ABB6",
"x+	c #EBEFF5",
"y+	c #EFEFF2",
"z+	c #FDFDFD",
"A+	c #FCFCFD",
"B+	c #EBEFF6",
"C+	c #C1ADB7",
"D+	c #F58C8C",
"E+	c #E73B3B",
"F+	c #C70000",
"G+	c #FE7474",
"H+	c #E29A9B",
"I+	c #C5B2BD",
"J+	c #EBF1F9",
"K+	c #EDEBF0",
"L+	c #F1F1F5",
"M+	c #F8FAFC",
"N+	c #DCC2C4",
"O+	c #F9FCFE",
"P+	c #EAF0F8",
"Q+	c #C4AEB8",
"R+	c #E5A1A2",
"S+	c #FD7070",
"T+	c #C60000",
"U+	c #D60705",
"V+	c #FF8B8B",
"W+	c #E8B9BA",
"X+	c #BFA1AA",
"Y+	c #DDDFE9",
"Z+	c #EBF1F7",
"`+	c #EFF1F7",
" @	c #F2F8FD",
".@	c #A03C3C",
"+@	c #F8FFFF",
"@@	c #EEF1F6",
"#@	c #ECF1F7",
"$@	c #DCDDE7",
"%@	c #BFA0A9",
"&@	c #EAB9BA",
"*@	c #FF8686",
"=@	c #D70202",
"-@	c #DB0000",
";@	c #FC6E6E",
">@	c #FBD8D7",
",@	c #D0ADB1",
"'@	c #C1A1A9",
")@	c #CCC0CB",
"!@	c #DEE6F1",
"~@	c #B99097",
"{@	c #E0E9F5",
"]@	c #CBBDC8",
"^@	c #C2A2AA",
"/@	c #D1AEB2",
"(@	c #FDD5D4",
"_@	c #FB6968",
":@	c #DD0000",
"<@	c #DA0000",
"[@	c #F12323",
"}@	c #FF9897",
"|@	c #FFDFDE",
"1@	c #EDD9D9",
"2@	c #D8BEBF",
"3@	c #D9C5C7",
"4@	c #EEDADA",
"5@	c #FFE0DF",
"6@	c #FF9493",
"7@	c #F01E1E",
"8@	c #DE0000",
"9@	c #E90000",
"0@	c #ED0B0B",
"a@	c #F6393A",
"b@	c #FC5B5B",
"c@	c #FE6868",
"d@	c #FD5959",
"e@	c #F63738",
"f@	c #EE0D0D",
"g@	c #E80000",
"                                                ",
"                  . + @ # $ % &                 ",
"              * = - ; > , > ' ) ! ~             ",
"          { ] ) ^ / ( _ : < [ } | 1 2 3         ",
"        4 5 6 7 8 9 0 a b c d e f g h i j       ",
"      k l m n o p q r s t u v w x y z A B C     ",
"      D E F G H I J K L u M N O P Q R S T U     ",
"    V W X Y Z `  ...+.@.#.$.%.u &.*.=.-.;.>.,.  ",
"    '.).!.~.{.].^./.(._.:.<.[.}.=.|.1.2.3.4.5.  ",
"    6.7.8.9.0.a.u b.c.d.e.f.g.=.h.i.j.k.l.m.n.  ",
"  o.p.q.r.s.=.=.t.u.v./.w.x.=.y.u u z.A.B.C.D.E.",
"  F.G.H.I.J.K.L.M.=.=.M.N.=.O.u u u P.Q.R.S.T.U.",
"  V.W.X.Y.Z.`.u u  +.+++=.@+u #+u u $+%+&+*+=+-+",
"  ;+>+,+'+)+!+u u u u u b.u ~+u u u {+]+^+/+(+_+",
"  :+<+[+}+|+1+~+u u ~+u u ~+~+u u 2+3+k.4+5+6+  ",
"    7+8+9+0+a+b+u u ~+~+~+~+~+u u b+q c+d+e+f+  ",
"    g+h+i+j+k+l+b+u u u u u u m+n+o+p+q+r+s+t+  ",
"      u+v+w+x+y+o+!+z+~+u 2+A+{+o+k+B+C+D+E+    ",
"      F+G+H+I+J+K+L+o+M+N+O+o+L+0+P+Q+R+S+T+    ",
"        U+V+W+X+Y+Z+`+ @.@+@@@#@$@%@&@*@=@      ",
"          -@;@>@,@'@)@!@~@{@]@^@/@(@_@:@        ",
"            <@[@}@|@1@2@3@2@4@5@6@7@8@          ",
"                9@0@a@b@c@d@e@f@g@              ",
"                                                "};
