/* XPM */
static char * eth1_xpm[] = {
"24 24 253 2",
"  	c None",
". 	c #0079D6",
"+ 	c #0177D7",
"@ 	c #0076DE",
"# 	c #0073DA",
"$ 	c #005AB9",
"% 	c #0067D0",
"& 	c #0061BE",
"* 	c #005BB3",
"= 	c #0063CA",
"- 	c #0075E4",
"; 	c #006DDA",
"> 	c #006ADA",
", 	c #0066D2",
"' 	c #005FC8",
") 	c #258DDF",
"! 	c #47B9F2",
"~ 	c #23A5F1",
"{ 	c #2597E9",
"] 	c #0E6FC5",
"^ 	c #0061C9",
"/ 	c #006BDA",
"( 	c #0070E2",
"_ 	c #0073DD",
": 	c #0068D3",
"< 	c #0065D2",
"[ 	c #005EC4",
"} 	c #0058B8",
"| 	c #0169B6",
"1 	c #0183EB",
"2 	c #2496DF",
"3 	c #0E9BEF",
"4 	c #0098FC",
"5 	c #0385E4",
"6 	c #188BDC",
"7 	c #0A7DDA",
"8 	c #006CDD",
"9 	c #006FE0",
"0 	c #0070E0",
"a 	c #0071D8",
"b 	c #0064C8",
"c 	c #005DBC",
"d 	c #0055AC",
"e 	c #021833",
"f 	c #003262",
"g 	c #000E28",
"h 	c #00112D",
"i 	c #0054A4",
"j 	c #0065C3",
"k 	c #004F9E",
"l 	c #0265B6",
"m 	c #006EDD",
"n 	c #006EDC",
"o 	c #006AD3",
"p 	c #006BCD",
"q 	c #0059AF",
"r 	c #004992",
"s 	c #546379",
"t 	c #323344",
"u 	c #6A5B5B",
"v 	c #060001",
"w 	c #1E1722",
"x 	c #342A3B",
"y 	c #030C2C",
"z 	c #004EA3",
"A 	c #004D9B",
"B 	c #004D98",
"C 	c #0067C0",
"D 	c #006BD0",
"E 	c #0069CE",
"F 	c #0063C4",
"G 	c #0063C3",
"H 	c #0059AA",
"I 	c #045591",
"J 	c #D9CFC8",
"K 	c #D1C8C1",
"L 	c #9D979A",
"M 	c #BFC3CC",
"N 	c #DAD2D0",
"O 	c #917F7C",
"P 	c #96919C",
"Q 	c #5B648C",
"R 	c #34385B",
"S 	c #0F3770",
"T 	c #0050A2",
"U 	c #004790",
"V 	c #005BAA",
"W 	c #0060B7",
"X 	c #0068C4",
"Y 	c #006BC7",
"Z 	c #005FB9",
"` 	c #0E619C",
" .	c #0F3A50",
"..	c #D9CFC9",
"+.	c #E7DFD9",
"@.	c #DCD1C9",
"#.	c #CCC0BC",
"$.	c #D8C9C3",
"%.	c #CBBAB3",
"&.	c #AFA092",
"*.	c #AAAB99",
"=.	c #8B958B",
"-.	c #A09CA9",
";.	c #807C89",
">.	c #0D1B48",
",.	c #004CA0",
"'.	c #00498C",
").	c #015296",
"!.	c #00509A",
"~.	c #0055A6",
"{.	c #004C98",
"].	c #13588C",
"^.	c #243F4C",
"/.	c #C2B7B5",
"(.	c #F4EEEB",
"_.	c #D2C8C6",
":.	c #C5B1A7",
"<.	c #B69C92",
"[.	c #A6978B",
"}.	c #7B6861",
"|.	c #A9B8A0",
"1.	c #91A1A0",
"2.	c #C7C2CA",
"3.	c #9598A3",
"4.	c #081F4D",
"5.	c #000E45",
"6.	c #004692",
"7.	c #014883",
"8.	c #03437E",
"9.	c #00488E",
"0.	c #004588",
"a.	c #185786",
"b.	c #274555",
"c.	c #C8BFBF",
"d.	c #918381",
"e.	c #966F64",
"f.	c #8A6057",
"g.	c #C1ABA3",
"h.	c #A2AB8F",
"i.	c #9BBE96",
"j.	c #968D7B",
"k.	c #84757C",
"l.	c #F8EBEA",
"m.	c #7D909D",
"n.	c #5D382E",
"o.	c #421823",
"p.	c #01205C",
"q.	c #01366B",
"r.	c #003F7D",
"s.	c #024680",
"t.	c #1E6390",
"u.	c #264B5E",
"v.	c #BCADAB",
"w.	c #7E6963",
"x.	c #846963",
"y.	c #CAB9B4",
"z.	c #B1A598",
"A.	c #CCCDAD",
"B.	c #CBBBAB",
"C.	c #A9A5B3",
"D.	c #9FAE9B",
"E.	c #A4B39E",
"F.	c #D89065",
"G.	c #D13607",
"H.	c #BB502B",
"I.	c #201D32",
"J.	c #002557",
"K.	c #004184",
"L.	c #094A7F",
"M.	c #226491",
"N.	c #214C66",
"O.	c #84736F",
"P.	c #A9958F",
"Q.	c #947A75",
"R.	c #92987F",
"S.	c #E2D8CB",
"T.	c #BBB0AB",
"U.	c #B29F9A",
"V.	c #BCB5AC",
"W.	c #BDBFA7",
"X.	c #D0C5A5",
"Y.	c #F1A37E",
"Z.	c #FE874F",
"`.	c #CF673F",
" +	c #886E75",
".+	c #B2A59B",
"++	c #002859",
"@+	c #0E5082",
"#+	c #225B85",
"$+	c #17405B",
"%+	c #928D8B",
"&+	c #BEB0AA",
"*+	c #B8A391",
"=+	c #AC9791",
"-+	c #BFBDBF",
";+	c #D88552",
">+	c #F4A270",
",+	c #EFC3AB",
"'+	c #E6805D",
")+	c #EE8250",
"!+	c #EDC1AC",
"~+	c #A49D9C",
"{+	c #71686D",
"]+	c #6D6B71",
"^+	c #023E71",
"/+	c #1E4D71",
"(+	c #0D2332",
"_+	c #5B5A56",
":+	c #C9BBB7",
"<+	c #93888A",
"[+	c #D59B6E",
"}+	c #F0833A",
"|+	c #E57432",
"1+	c #EB5A18",
"2+	c #E69C76",
"3+	c #C8B7B0",
"4+	c #C5BFBF",
"5+	c #C9B3A8",
"6+	c #6C5C5D",
"7+	c #074072",
"8+	c #0D3653",
"9+	c #040608",
"0+	c #8A8A87",
"a+	c #B9A297",
"b+	c #AD8D7F",
"c+	c #CB9165",
"d+	c #CA5C26",
"e+	c #DDB298",
"f+	c #D3CECA",
"g+	c #C9B7AC",
"h+	c #D1BFB6",
"i+	c #978A81",
"j+	c #122C42",
"k+	c #03243C",
"l+	c #A19894",
"m+	c #D9B89B",
"n+	c #E1985B",
"o+	c #92807D",
"p+	c #CDC3C1",
"q+	c #D0BEB6",
"r+	c #BAA9A0",
"s+	c #5B5553",
"t+	c #C69D79",
"u+	c #C3A99B",
"v+	c #D8CAC4",
"w+	c #B9A69E",
"x+	c #998C88",
"y+	c #1B191A",
"z+	c #9C8987",
"A+	c #9D8A85",
"B+	c #857873",
"C+	c #786663",
"D+	c #574D4A",
"                                                ",
"                                                ",
"                                                ",
"                                                ",
"                                                ",
"                                        . + @ # ",
"                          $ % & * = - ; > , ' ' ",
"                      ) ! ~ { ] ^ / ( _ : < [ } ",
"                  | 1 2 3 4 5 6 7 8 9 0 a b c d ",
"                  e f g h i j k l # m n o p q r ",
"              s t u v w x y z A B C D E F G H I ",
"          J K L M N O P Q R S T U V W X Y Z `  .",
"      ..+.@.#.$.%.&.*.=.-.;.>.,.'.).!.~.{.].^.  ",
"    /.(._.:.<.[.}.|.1.2.3.4.5.6.7.8.9.0.a.b.    ",
"  c.d.e.f.g.h.i.j.k.l.m.n.o.p.U q.r.s.t.u.      ",
"  v.w.x.y.z.A.B.C.D.E.F.G.H.I.J.K.L.M.N.        ",
"O.P.Q.R.S.T.U.V.W.X.Y.Z.`. +.+++@+#+$+          ",
"  %+&+*+=+-+;+>+,+'+)+!+~+{+]+^+/+(+            ",
"    _+:+<+[+}+|+1+2+3+4+5+6+7+8+9+              ",
"      0+a+b+c+d+e+f+g+h+i+j+k+                  ",
"        l+m+n+o+p+q+r+s+                        ",
"          t+u+v+w+x+y+                          ",
"            z+A+B+                              ",
"            C+D+                                "};
