/* XPM */
static char * ram_xpm[] = {
"24 24 205 2",
"  	c None",
". 	c #74977E",
"+ 	c #51655A",
"@ 	c #5A7C68",
"# 	c #5D9377",
"$ 	c #53655C",
"% 	c #373F3E",
"& 	c #475B53",
"* 	c #65927B",
"= 	c #4A6557",
"- 	c #465950",
"; 	c #5B6B65",
"> 	c #474D4A",
", 	c #373E3B",
"' 	c #4C7566",
") 	c #62AA87",
"! 	c #5A7566",
"~ 	c #56655D",
"{ 	c #3F4341",
"] 	c #4A514F",
"^ 	c #5D6B65",
"/ 	c #444943",
"( 	c #384640",
"_ 	c #487562",
": 	c #6A9E79",
"< 	c #495E51",
"[ 	c #404D45",
"} 	c #5C6863",
"| 	c #4E5651",
"1 	c #424642",
"2 	c #5B6460",
"3 	c #44504D",
"4 	c #324037",
"5 	c #657E5D",
"6 	c #78A47B",
"7 	c #52665B",
"8 	c #606C64",
"9 	c #444743",
"0 	c #434B46",
"a 	c #617069",
"b 	c #474D4B",
"c 	c #373B3B",
"d 	c #4E6357",
"e 	c #798C6B",
"f 	c #B0AF82",
"g 	c #B5B79E",
"h 	c #4D5D54",
"i 	c #404845",
"j 	c #545F5A",
"k 	c #515C55",
"l 	c #424944",
"m 	c #535D5A",
"n 	c #495958",
"o 	c #3B5247",
"p 	c #88946B",
"q 	c #C0B98D",
"r 	c #C1B49F",
"s 	c #458161",
"t 	c #658E6B",
"u 	c #75836F",
"v 	c #424440",
"w 	c #3A443E",
"x 	c #5F6F67",
"y 	c #454D4A",
"z 	c #2A3431",
"A 	c #536D58",
"B 	c #99A67A",
"C 	c #BCB288",
"D 	c #BDB19F",
"E 	c #718A73",
"F 	c #658A66",
"G 	c #568860",
"H 	c #789271",
"I 	c #60675E",
"J 	c #404544",
"K 	c #48514C",
"L 	c #4C5A55",
"M 	c #596A5A",
"N 	c #969B71",
"O 	c #B9AF87",
"P 	c #505C3E",
"Q 	c #4A5546",
"R 	c #7D8B71",
"S 	c #76946C",
"T 	c #6A8F66",
"U 	c #7F8F73",
"V 	c #464D49",
"W 	c #273836",
"X 	c #6A7E63",
"Y 	c #B2B181",
"Z 	c #C0B28D",
"` 	c #AC8F39",
" .	c #C79336",
"..	c #685E4A",
"+.	c #57645F",
"@.	c #78906A",
"#.	c #608B60",
"$.	c #6C8963",
"%.	c #5A6F5D",
"&.	c #62775F",
"*.	c #A5A677",
"=.	c #C2B690",
"-.	c #97751B",
";.	c #E2A944",
">.	c #FFF9D6",
",.	c #BBC0C4",
"'.	c #535752",
").	c #69745C",
"!.	c #769469",
"~.	c #6A8E63",
"{.	c #628761",
"].	c #7B946D",
"^.	c #B4B092",
"/.	c #5A6F4F",
"(.	c #B58722",
"_.	c #F5BB55",
":.	c #FFFEEA",
"<.	c #FFFFFF",
"[.	c #B1B6B5",
"}.	c #444846",
"|.	c #404B44",
"1.	c #778D6E",
"2.	c #9BA66E",
"3.	c #B1AE7B",
"4.	c #AFB7A5",
"5.	c #7F7D4E",
"6.	c #B3841D",
"7.	c #F3C168",
"8.	c #FFFFF9",
"9.	c #E8F0FD",
"0.	c #9EA3A1",
"a.	c #5B6863",
"b.	c #33423E",
"c.	c #44554A",
"d.	c #969D75",
"e.	c #C0B684",
"f.	c #C2B498",
"g.	c #756A33",
"h.	c #CB9526",
"i.	c #FCCF7E",
"j.	c #F6F8F9",
"k.	c #D0DCE7",
"l.	c #787E7C",
"m.	c #333B37",
"n.	c #394940",
"o.	c #687A64",
"p.	c #A1A578",
"q.	c #BCB283",
"r.	c #BAB19C",
"s.	c #776E3E",
"t.	c #C99229",
"u.	c #F9D492",
"v.	c #EEF5FA",
"w.	c #B7C0C8",
"x.	c #737B78",
"y.	c #505E5B",
"z.	c #2F403E",
"A.	c #5C6956",
"B.	c #ACAC77",
"C.	c #BEB381",
"D.	c #5C825F",
"E.	c #81866B",
"F.	c #DFCDB5",
"G.	c #F5F7F9",
"H.	c #B4C0C5",
"I.	c #595D5D",
"J.	c #2F3330",
"K.	c #4A5A4E",
"L.	c #778A6C",
"M.	c #AEAD79",
"N.	c #C0B489",
"O.	c #699475",
"P.	c #628571",
"Q.	c #9EABA9",
"R.	c #ABADAE",
"S.	c #656D68",
"T.	c #505C57",
"U.	c #374A46",
"V.	c #637657",
"W.	c #B7B279",
"X.	c #C8B990",
"Y.	c #65957D",
"Z.	c #5C8170",
"`.	c #434944",
" +	c #343835",
".+	c #526555",
"++	c #7C8C65",
"@+	c #B3AD77",
"#+	c #C3B794",
"$+	c #448E6C",
"%+	c #466053",
"&+	c #3A4841",
"*+	c #6B7E51",
"=+	c #BAB174",
"-+	c #C7B796",
";+	c #56967B",
">+	c #4E7A62",
",+	c #979C6C",
"'+	c #C4B47C",
")+	c #BEB093",
"!+	c #5C9069",
"~+	c #9FA375",
"{+	c #C6B299",
"]+	c #8DB394",
"^+	c #9BAE9F",
"                                        .       ",
"                                      + @ #     ",
"                                    $ % & *     ",
"                                = - ; > , ' )   ",
"                              ! ~ { ] ^ / ( _ : ",
"                            < [ } | 1 2 3 4 5 6 ",
"                          7 8 9 0 a b c d e f g ",
"                        h i j k l m n o p q r   ",
"                    s t u v w x y z A B C D     ",
"                  E F G H I J K L M N O         ",
"                P Q R S T U V W X Y Z           ",
"              `  ...+.@.#.$.%.&.*.=.            ",
"            -.;.>.,.'.).!.~.{.].^.              ",
"        /.(._.:.<.[.}.|.1.2.3.4.                ",
"      5.6.7.8.9.0.a.b.c.d.e.f.                  ",
"    g.h.i.j.k.l.m.n.o.p.q.r.                    ",
"  s.t.u.v.w.x.y.z.A.B.C.                        ",
"D.E.F.G.H.I.J.K.L.M.N.                          ",
"O.P.Q.R.S.T.U.V.W.X.                            ",
"  Y.Z.`. +.+++@+#+                              ",
"    $+%+&+*+=+-+                                ",
"    ;+>+,+'+)+                                  ",
"      !+~+{+                                    ",
"      ]+^+                                      "};
