/* XPM */
static char * silverpillar_xpm[] = {
"5 26 71 1",
" 	c None",
".	c #909092",
"+	c #BBBABC",
"@	c #D3D3D3",
"#	c #A6A7A8",
"$	c #7A7B7E",
"%	c #919194",
"&	c #DDDEDE",
"*	c #DBDCDD",
"=	c #9B9D9F",
"-	c #86878A",
";	c #C2C3C3",
">	c #B9BABB",
",	c #86868A",
"'	c #B0B1B3",
")	c #A4A5A6",
"!	c #757679",
"~	c #B4B5B7",
"{	c #A8A9AB",
"]	c #77787B",
"^	c #B3B4B5",
"/	c #A7A8AA",
"(	c #747577",
"_	c #B3B3B5",
":	c #A6A7A9",
"<	c #727274",
"[	c #B1B2B3",
"}	c #6F7072",
"|	c #6E6E70",
"1	c #B0B0B2",
"2	c #A5A5A7",
"3	c #6B6C6E",
"4	c #AFAFB0",
"5	c #A4A5A7",
"6	c #68696B",
"7	c #AEAEB0",
"8	c #A5A6A8",
"9	c #666769",
"0	c #ACACAE",
"a	c #656668",
"b	c #ABACAD",
"c	c #A3A4A6",
"d	c #636466",
"e	c #616163",
"f	c #A8A8AA",
"g	c #5E5F61",
"h	c #A7A7A9",
"i	c #A2A3A5",
"j	c #5D5D60",
"k	c #A2A2A4",
"l	c #5C5C5F",
"m	c #A2A2A3",
"n	c #5A5A5D",
"o	c #59595B",
"p	c #58595B",
"q	c #9FA0A2",
"r	c #565659",
"s	c #A1A2A4",
"t	c #565759",
"u	c #CCCCCD",
"v	c #C8C9C9",
"w	c #7B7D7F",
"x	c #EBEBEB",
"y	c #DFDFE0",
"z	c #989A9D",
"A	c #666669",
"B	c #E6E6E6",
"C	c #F3F3F3",
"D	c #E4E4E4",
"E	c #9B9DA0",
"F	c #5F6062",
".+@#$",
"%&*=-",
" ;>, ",
" ')! ",
" ~{] ",
" ^/( ",
" _:< ",
" [:} ",
" [:| ",
" 123 ",
" 456 ",
" 789 ",
" 05a ",
" bcd ",
" {ce ",
" fcg ",
" hij ",
" hkl ",
" fmn ",
" hko ",
" :ip ",
" kqr ",
" sit ",
" uvw ",
" xyzA",
"BCDEF"};
